<svg xmlns="http://www.w3.org/2000/svg" viewBox="0 0 102.22 102.22"><defs><style>.cls-1{fill:#1d2959;fill-rule:evenodd;}</style></defs><g id="Layer_2" data-name="Layer 2"><g id="arrow_down" data-name="arrow down"><path id="Path_8" data-name="Path 8" class="cls-1" d="M89.44,6.39H12.78a6.39,6.39,0,0,0-6.39,6.39V89.44a6.39,6.39,0,0,0,6.39,6.39H89.44a6.39,6.39,0,0,0,6.39-6.39V12.78A6.39,6.39,0,0,0,89.44,6.39ZM12.78,0A12.78,12.78,0,0,0,0,12.78H0V89.44a12.78,12.78,0,0,0,12.78,12.78H89.44a12.78,12.78,0,0,0,12.78-12.78h0V12.78A12.78,12.78,0,0,0,89.44,0H12.78Z"/><path id="Path_9" data-name="Path 9" class="cls-1" d="M29.68,48.85a3.19,3.19,0,0,1,4.52,0h0l16.9,16.91L68,48.85a3.2,3.2,0,1,1,4.67,4.37l-.15.15L53.37,72.53a3.18,3.18,0,0,1-4.51,0h0L29.68,53.37a3.19,3.19,0,0,1,0-4.52Z"/><path id="Path_10" data-name="Path 10" class="cls-1" d="M51.11,28.75a3.19,3.19,0,0,1,3.19,3.19h0v32a3.2,3.2,0,0,1-6.39,0V31.94a3.19,3.19,0,0,1,3.2-3.19Z"/></g></g></svg>