<svg xmlns="http://www.w3.org/2000/svg" width="35" height="35.001" viewBox="0 0 100 100">
  <path id="go_up" data-name="go up" d="M85,100H15A15,15,0,0,1,0,85H0V15A15,15,0,0,1,15,0H85a15,15,0,0,1,15,15V85a15,15,0,0,1-15,15ZM46.3,33V75.87a3.7,3.7,0,0,0,7.39,0V33L73.28,52.59a3.57,3.57,0,0,0,5,.12l.12-.12a3.58,3.58,0,0,0,.12-5.06l-.12-.12L53.23,22.19a3.54,3.54,0,0,0-3.13-1.75h-.2a3.49,3.49,0,0,0-3.13,1.75L21.55,47.41a3.58,3.58,0,0,0-.12,5.06l.12.12a3.57,3.57,0,0,0,5.05.12l.12-.12Z" fill="#1d2959"/>
  </svg>